<svg xmlns="http://www.w3.org/2000/svg" xmlns:xlink="http://www.w3.org/1999/xlink" viewBox="0 0 106.562 44.562" fill="#fff" fill-rule="evenodd" stroke="#000" stroke-linecap="round" stroke-linejoin="round"><use xlink:href="#A" x="3.281" y="3.281"/><symbol id="A" overflow="visible"><path d="M78.192 0c-.604-.007-1.312.164-1.641.427-.998.656-4.646 12.029-6.169 17.869 0 0-.328 1.214-.768 4.016l-.394 2.782c-.381 2.061-1.85 3.17-3.124 2.927-1.588-.302-1.818-2.664-1.391-4.416.459-1.923 2.047-4.095 3.937-3.57.879.197 1.332.098 1.391-.486.066-.755-.827-1.208-.827-1.208-3.498-1.759-6.562 1.116-7.416 5.25-.938 4.745 1.995 8.511 6.759 5.808 1.49-.853 1.411 1.129 4.758 1.011 2.428-.236 3.826-1.969 2.625-3.019-.827-.656-1.312.624-2.756.446-2.953-.381.354-8.925 2.054-14.26 1.457-4.548 3.084-7.875 4.462-11.497.558-1.483-.348-1.988-1.352-1.995zM24.99.971c-5.053.131-14.437 4.961-21.525 10.546-2.901 2.526-4.574 3.124-2.625 5.145 1.68 1.68 2.756.394 2.756.394 1.601-1.26 5.053-4.791 7.324-6.471 3.235-2.395 7.704-5.854 11.655-6.779 3.137-.788 4.088.131 3.675 3.327-.249 2.743-2.363 8.912-2.363 8.912-1.394.63-2.798 1.236-4.213 1.818-.755.282-1.549.092-1.641 1.818-.039 1.851 1.083 1.155 1.838.866.656-.223 1.949-.879 2.461-1.089.381-.295.788-.046.656.505-.381 1.221-1.063 3.281-2.363 6.07l-4.961 10.605c.039.886 1.004 1.011 2.277 1.03 1.181-.092 1.706-.906 1.706-.906l3.937-9.056 3.281-9.214c.249-.919.787-1.116 1.509-1.293l3.491-.984c2.323-.571 2.986-.446 3.281-2.054.21-1.116-.282-1.641-.282-1.641l-6.07 1.857c-.886.381-.656-.545-.656-.545s-.131.656.427-1.818c1.66-7.297.696-9.24-.623-10.349-.623-.525-1.555-.735-2.724-.709zm68.544 12.941c-.866-.039-2.848 1.444-2.08 5.25-1.05 3.957-9.076 10.854-10.145 8.072-.262-.683.44-1.798 2.277-2.179 3.032-.63 2.776-2.513 1.332-2.704-2.271-.295-2.901-.295-5.604-.919-1.07-.112-1.037-1.536.223-1.509.525-.02 1.818.157 4.594.262 2.907.112 3.478-2.152 3.367-3.544-2.966.643-3.675.807-6.234.807-2.625 0-6.011.742-6.07 3.104s3.019 2.887 4.62 3.327c.44.105.656.473.302.709-.683.545-2.218 1.26-2.402 2.54-.263 1.818 1.391 3.248 3.491 3.281 2.796-.066 5.886-1.312 8.859-4.79.84-1.004 1.772-2.704 2.362-3.452.131-.262.525-.394.709-.381.525.118 1.293.512 1.181 1.089-.151.879-2.625 3.629-.971 5.283.984 1.017 3.458 1.732 5.427.302 1.838-1.339 1.194-2.625.459-2.645-.525-.066-1.988 1.772-3.163.459-.984-1.083 1.352-3.314 1.818-4.115.669-1.155-1.929-1.969-3.019-3.478-.709-.938 1.116-3.806-1.168-4.58-.046-.013-.105-.039-.164-.039zm-50.36 2.966c-2.468.735-3.721.643-6.333.643-2.743 0-6.451.381-6.3 3.019.131 2.231 3.261 2.842 4.882 3.019.459-.046.656.394.263.623-.656.742-1.562 1.752-1.673 2.579-.243 1.792.669 3.366 2.953 3.327 2.441-.039 3.242-1.811 7.324-4.298 1.142-.696 2.625-1.864 3.15-1.956.223 0 .545.066.525.505-.348 1.628-.656 2.723-.302 4.115.295.984 1.588 1.595 2.52.886 1.555-1.181 1.575-1.864 3.59-4.515.328-.44 1.575-2.448 2.139-2.179.473.223.328.879.243 1.391-.426 2.494-1.509 6.411 3.413 5.808 1.168-.144 2.12-.939 1.227-1.772-.538-.505-1.142-.144-1.818-.302-1.575-.361 2.323-7.547.459-8.872-2.612-1.87-5.04 1.444-6.858 3.937-.656.958-1.312.538-1.706-.807-.525-1.496-3.623-.394-5.407.525-2.848 1.47-8.124 6.385-8.61 3.937-.085-.427.617-1.312 1.969-1.837 1.509-.545 3.189-1.03 3.189-1.936 0-.696-.42-1.194-.866-1.168-2.1.118-4.594.656-7.324-.098-.637-.007-.919-1.601.971-1.391 1.939.141 3.883.215 5.827.223 2.973.066 3.038-2.166 2.645-3.281z" stroke="none" fill="#000" fill-rule="nonzero"/></symbol></svg>